<svg width="64" height="64" viewBox="0 0 64 64" fill="none" xmlns="http://www.w3.org/2000/svg">
<path d="M32 17.3333C33.7682 17.3333 35.4638 18.0356 36.7141 19.2859C37.9643 20.5361 38.6667 22.2318 38.6667 23.9999C38.6667 24.8754 38.4943 25.7423 38.1592 26.5511C37.8242 27.36 37.3331 28.0949 36.7141 28.714C36.095 29.333 35.3601 29.8241 34.5513 30.1591C33.7424 30.4941 32.8755 30.6666 32 30.6666C30.2319 30.6666 28.5362 29.9642 27.286 28.714C26.0358 27.4637 25.3334 25.768 25.3334 23.9999C25.3334 22.2318 26.0358 20.5361 27.286 19.2859C28.5362 18.0356 30.2319 17.3333 32 17.3333ZM32 5.33325C36.9507 5.33325 41.6987 7.29991 45.1994 10.8006C48.7 14.3013 50.6667 19.0492 50.6667 23.9999C50.6667 37.9999 32 58.6666 32 58.6666C32 58.6666 13.3334 37.9999 13.3334 23.9999C13.3334 19.0492 15.3 14.3013 18.8007 10.8006C22.3014 7.29991 27.0493 5.33325 32 5.33325ZM32 10.6666C28.4638 10.6666 25.0724 12.0713 22.5719 14.5718C20.0715 17.0723 18.6667 20.4637 18.6667 23.9999C18.6667 26.6666 18.6667 31.9999 32 49.8932C45.3334 31.9999 45.3334 26.6666 45.3334 23.9999C45.3334 20.4637 43.9286 17.0723 41.4281 14.5718C38.9276 12.0713 35.5363 10.6666 32 10.6666Z" fill="#2D3A1D"/>
</svg>
