<svg xmlns="http://www.w3.org/2000/svg" width="80" height="80" fill="none" viewBox="0 0 80 80"><path stroke="#2D3A1D" stroke-width="4" d="M53.3333 30C51.795 40 48.3333 49.1667 40.8333 49.1667C33.3333 49.1667 30.8333 40.8333 28.3333 30C25.8333 19.1667 28.3333 10 40.8333 10C53.3333 10 54.8717 20 53.3333 30Z"/><path stroke="#2D3A1D" stroke-linecap="round" stroke-width="4" d="M54.1667 20.8333C57.0834 18.1133 60.055 17.2167 64.7334 17.5067C71.7534 17.9433 73.3334 22.7467 73.3334 29.9267M73.3334 29.9267C73.3334 37.1083 70.5817 43.6383 65.0983 42.16C59.615 40.6833 60.3817 34.85 62.9467 32.115C65.51 29.38 69.9967 28.265 73.3334 29.9267ZM27.5 20C24.55 17.4267 21.0667 17.2167 16.8117 17.5083C10.4284 17.945 6.66669 22.82 6.66669 30M6.66669 30C6.66669 37.18 11.495 43.6367 16.48 42.16C21.4667 40.6817 20.77 34.8483 18.4384 32.1133C16.105 29.38 9.70169 28.3367 6.66669 30Z"/><path stroke="#2D3A1D" stroke-linecap="round" stroke-linejoin="round" stroke-width="4" d="M33.3334 45V71.6667M48.3334 45V71.6667"/></svg>