<svg xmlns="http://www.w3.org/2000/svg" width="64" height="64" fill="none" viewBox="0 0 64 64"><path fill="#2D3A1D" d="M34.6667 32.4666L40.6667 38.4666C41.1556 38.9555 41.4 39.567 41.4 40.3013C41.4 41.0355 41.1556 41.6684 40.6667 42.1999C40.1334 42.7333 39.4996 42.9999 38.7654 42.9999C38.0312 42.9999 37.3983 42.7333 36.8667 42.1999L31.2 36.5333C30.5778 35.911 30.1112 35.2221 29.8 34.4666C29.4889 33.711 29.3334 32.8888 29.3334 31.9999V23.9999C29.3334 23.2444 29.5894 22.6106 30.1014 22.0986C30.6134 21.5866 31.2463 21.3315 32 21.3333C32.7556 21.3333 33.3894 21.5893 33.9014 22.1013C34.4134 22.6133 34.6685 23.2461 34.6667 23.9999V32.4666ZM32 10.6666C32.7556 10.6666 33.3894 10.9226 33.9014 11.4346C34.4134 11.9466 34.6685 12.5795 34.6667 13.3333C34.6667 14.0888 34.4107 14.7226 33.8987 15.2346C33.3867 15.7466 32.7538 16.0017 32 15.9999C31.2445 15.9999 30.6107 15.7439 30.0987 15.2319C29.5867 14.7199 29.3316 14.087 29.3334 13.3333C29.3334 12.5777 29.5894 11.9439 30.1014 11.4319C30.6134 10.9199 31.2463 10.6648 32 10.6666ZM53.3334 31.9999C53.3334 32.7555 53.0774 33.3893 52.5654 33.9013C52.0534 34.4133 51.4205 34.6684 50.6667 34.6666C49.9112 34.6666 49.2774 34.4106 48.7654 33.8986C48.2534 33.3866 47.9983 32.7537 48 31.9999C48 31.2444 48.256 30.6106 48.768 30.0986C49.28 29.5866 49.9129 29.3315 50.6667 29.3333C51.4223 29.3333 52.056 29.5893 52.568 30.1013C53.08 30.6133 53.3352 31.2461 53.3334 31.9999ZM32 47.9999C32.7556 47.9999 33.3894 48.2559 33.9014 48.7679C34.4134 49.2799 34.6685 49.9128 34.6667 50.6666C34.6667 51.4221 34.4107 52.0559 33.8987 52.5679C33.3867 53.0799 32.7538 53.335 32 53.3333C31.2445 53.3333 30.6107 53.0773 30.0987 52.5653C29.5867 52.0533 29.3316 51.4204 29.3334 50.6666C29.3334 49.911 29.5894 49.2773 30.1014 48.7653C30.6134 48.2533 31.2463 47.9981 32 47.9999ZM16 31.9999C16 32.7555 15.744 33.3893 15.232 33.9013C14.72 34.4133 14.0872 34.6684 13.3334 34.6666C12.5778 34.6666 11.944 34.4106 11.432 33.8986C10.92 33.3866 10.6649 32.7537 10.6667 31.9999C10.6667 31.2444 10.9227 30.6106 11.4347 30.0986C11.9467 29.5866 12.5796 29.3315 13.3334 29.3333C14.0889 29.3333 14.7227 29.5893 15.2347 30.1013C15.7467 30.6133 16.0018 31.2461 16 31.9999ZM32 58.6666C28.3112 58.6666 24.8445 57.9661 21.6 56.5653C18.3556 55.1644 15.5334 53.2648 13.1334 50.8666C10.7334 48.4666 8.83382 45.6444 7.43471 42.3999C6.0356 39.1555 5.33515 35.6888 5.33337 31.9999C5.33337 28.311 6.03382 24.8444 7.43471 21.5999C8.8356 18.3555 10.7352 15.5333 13.1334 13.1333C15.5334 10.7333 18.3556 8.8337 21.6 7.43459C24.8445 6.03547 28.3112 5.33503 32 5.33325C35.6889 5.33325 39.1556 6.0337 42.4 7.43459C45.6445 8.83547 48.4667 10.735 50.8667 13.1333C53.2667 15.5333 55.1672 18.3555 56.568 21.5999C57.9689 24.8444 58.6685 28.311 58.6667 31.9999C58.6667 35.6888 57.9663 39.1555 56.5654 42.3999C55.1645 45.6444 53.2649 48.4666 50.8667 50.8666C48.4667 53.2666 45.6445 55.167 42.4 56.5679C39.1556 57.9688 35.6889 58.6684 32 58.6666ZM32 53.3333C37.9556 53.3333 43 51.2666 47.1334 47.1333C51.2667 42.9999 53.3334 37.9555 53.3334 31.9999C53.3334 26.0444 51.2667 20.9999 47.1334 16.8666C43 12.7333 37.9556 10.6666 32 10.6666C26.0445 10.6666 21 12.7333 16.8667 16.8666C12.7334 20.9999 10.6667 26.0444 10.6667 31.9999C10.6667 37.9555 12.7334 42.9999 16.8667 47.1333C21 51.2666 26.0445 53.3333 32 53.3333Z"/></svg>