<svg width="80" height="80" viewBox="0 0 80 80" fill="none" xmlns="http://www.w3.org/2000/svg">
<path d="M66.2133 28.2167C66.6824 26.5706 66.7841 24.8415 66.5112 23.1518C66.2383 21.462 65.5974 19.8528 64.6339 18.4381C63.6704 17.0234 62.4078 15.8377 60.9354 14.9648C59.4631 14.0919 57.8169 13.5532 56.1133 13.3867C55.4298 11.4255 54.1534 9.72519 52.461 8.52124C50.7685 7.31729 48.7437 6.66923 46.6667 6.66675C44.1986 6.67511 41.8221 7.60196 40 9.26675C38.178 7.60196 35.8014 6.67511 33.3333 6.66675C28.9967 6.66675 25.3 9.43675 23.9167 13.3834C22.2101 13.5457 20.5602 14.0815 19.0839 14.9528C17.6076 15.8242 16.3412 17.0097 15.3744 18.4254C14.4076 19.841 13.7642 21.452 13.4898 23.1442C13.2154 24.8363 13.3168 26.5682 13.7867 28.2167C11.6468 29.3553 9.85501 31.0518 8.60145 33.1264C7.3479 35.201 6.67933 37.5762 6.66667 40.0001C6.66667 43.5834 8.09334 46.9534 10.5733 49.4401C10.1939 50.7031 10.0007 52.0147 10 53.3334C10 59.8567 14.7067 65.3001 21.02 66.4467C21.9468 68.4951 23.4434 70.2336 25.3313 71.4547C27.2191 72.6758 29.4184 73.328 31.6667 73.3334C34.93 73.3334 37.88 71.9767 40 69.8034C41.0821 70.9196 42.3772 71.8072 43.8087 72.4136C45.2401 73.0199 46.7787 73.3327 48.3333 73.3334C50.5776 73.3293 52.7734 72.6797 54.6588 71.4622C56.5441 70.2447 58.0395 68.5106 58.9667 66.4667C60.8265 66.1389 62.5957 65.4202 64.1573 64.3582C65.7189 63.2962 67.0376 61.9151 68.0261 60.306C69.0147 58.6968 69.6506 56.8963 69.8921 55.0233C70.1335 53.1502 69.9749 51.2473 69.4267 49.4401C70.666 48.2003 71.6489 46.7285 72.3193 45.1088C72.9896 43.489 73.3342 41.7531 73.3333 40.0001C73.3207 37.5762 72.6521 35.201 71.3986 33.1264C70.145 31.0518 68.3532 29.3553 66.2133 28.2167ZM31.6667 66.6667C29.2967 66.6667 27.2333 64.9867 26.7667 62.6734L26.06 60.0001H23.3333C19.6567 60.0001 16.6667 57.0101 16.6667 53.3334C16.6667 52.1601 16.95 51.0601 17.51 50.0634L19.03 47.3434L16.4167 45.6434C15.4726 45.0348 14.6959 44.1996 14.1574 43.2138C13.6188 42.2281 13.3355 41.1233 13.3333 40.0001C13.3333 36.7434 15.7433 33.9201 18.94 33.4267L24.5833 32.5601L21.0533 28.0734C20.4247 27.263 20.0601 26.279 20.0089 25.2547C19.9578 24.2303 20.2224 23.2149 20.7671 22.3458C21.3118 21.4768 22.1103 20.796 23.0546 20.3955C23.9988 19.995 25.0433 19.8942 26.0467 20.1067L30 20.6901V16.6667C30 15.7827 30.3512 14.9348 30.9763 14.3097C31.6014 13.6846 32.4493 13.3334 33.3333 13.3334C34.2174 13.3334 35.0652 13.6846 35.6904 14.3097C36.3155 14.9348 36.6667 15.7827 36.6667 16.6667V61.6667C36.6667 64.4234 34.4233 66.6667 31.6667 66.6667ZM63.5833 45.6401L60.97 47.3401L62.49 50.0601C63.05 51.0601 63.3333 52.1601 63.3333 53.3334C63.3333 57.0101 60.3433 60.0001 56.5 60.0001H53.7733L53.2333 62.6734C53.0003 63.801 52.3857 64.8138 51.4932 65.5411C50.6007 66.2685 49.4847 66.666 48.3333 66.6667C45.5767 66.6667 43.3333 64.4234 43.3333 61.6667V16.6667C43.3333 14.8267 44.8267 13.3334 46.6667 13.3334C48.5067 13.3334 50 14.8267 50 16.8334V20.8567L53.9533 20.1067C54.9567 19.8942 56.0012 19.995 56.9455 20.3955C57.8897 20.796 58.6882 21.4768 59.2329 22.3458C59.7776 23.2149 60.0423 24.2303 59.9911 25.2547C59.9399 26.279 59.5753 27.263 58.9467 28.0734L55.4167 32.5634L61.06 33.4301C62.6216 33.6829 64.0427 34.4823 65.0696 35.6857C66.0965 36.8891 66.6625 38.4181 66.6667 40.0001C66.6667 42.2767 65.5133 44.3834 63.5833 45.6401Z" fill="#2D3A1D"/>
</svg>
