<svg width="68" height="68" viewBox="0 0 68 68" fill="none" xmlns="http://www.w3.org/2000/svg">
<path d="M60.2133 22.2167C60.6824 20.5706 60.7841 18.8415 60.5112 17.1518C60.2383 15.462 59.5974 13.8528 58.6339 12.4381C57.6704 11.0234 56.4078 9.83766 54.9354 8.96477C53.4631 8.09188 51.8169 7.55317 50.1133 7.38675C49.4298 5.42547 48.1534 3.72519 46.461 2.52124C44.7685 1.31729 42.7437 0.669228 40.6667 0.666748C38.1986 0.675107 35.8221 1.60196 34 3.26675C32.178 1.60196 29.8014 0.675107 27.3333 0.666748C22.9967 0.666748 19.3 3.43675 17.9167 7.38341C16.2101 7.54567 14.5602 8.08149 13.0839 8.95284C11.6076 9.8242 10.3412 11.0097 9.3744 12.4254C8.40763 13.841 7.76423 15.452 7.48984 17.1442C7.21545 18.8363 7.31679 20.5682 7.78667 22.2167C5.64679 23.3553 3.85501 25.0518 2.60145 27.1264C1.3479 29.201 0.679325 31.5762 0.666672 34.0001C0.666672 37.5834 2.09334 40.9534 4.57334 43.4401C4.19388 44.7031 4.00073 46.0147 4.00001 47.3334C4.00001 53.8567 8.70667 59.3001 15.02 60.4467C15.9468 62.4951 17.4434 64.2336 19.3313 65.4547C21.2191 66.6758 23.4184 67.328 25.6667 67.3334C28.93 67.3334 31.88 65.9767 34 63.8034C35.0821 64.9196 36.3772 65.8072 37.8087 66.4136C39.2401 67.0199 40.7787 67.3327 42.3333 67.3334C44.5776 67.3293 46.7734 66.6797 48.6588 65.4622C50.5441 64.2447 52.0395 62.5106 52.9667 60.4667C54.8265 60.1389 56.5957 59.4202 58.1573 58.3582C59.7189 57.2962 61.0376 55.9151 62.0261 54.306C63.0147 52.6968 63.6506 50.8963 63.8921 49.0233C64.1335 47.1502 63.9749 45.2473 63.4267 43.4401C64.666 42.2003 65.6489 40.7285 66.3193 39.1088C66.9896 37.489 67.3342 35.7531 67.3333 34.0001C67.3207 31.5762 66.6521 29.201 65.3986 27.1264C64.145 25.0518 62.3532 23.3553 60.2133 22.2167ZM25.6667 60.6667C23.2967 60.6667 21.2333 58.9867 20.7667 56.6734L20.06 54.0001H17.3333C13.6567 54.0001 10.6667 51.0101 10.6667 47.3334C10.6667 46.1601 10.95 45.0601 11.51 44.0634L13.03 41.3434L10.4167 39.6434C9.47262 39.0348 8.69591 38.1996 8.15736 37.2138C7.6188 36.2281 7.33552 35.1233 7.33334 34.0001C7.33334 30.7434 9.74334 27.9201 12.94 27.4267L18.5833 26.5601L15.0533 22.0734C14.4247 21.263 14.0601 20.279 14.0089 19.2547C13.9578 18.2303 14.2224 17.2149 14.7671 16.3458C15.3118 15.4768 16.1103 14.796 17.0546 14.3955C17.9988 13.995 19.0433 13.8942 20.0467 14.1067L24 14.6901V10.6667C24 9.78269 24.3512 8.93485 24.9763 8.30973C25.6014 7.6846 26.4493 7.33341 27.3333 7.33341C28.2174 7.33341 29.0652 7.6846 29.6904 8.30973C30.3155 8.93485 30.6667 9.78269 30.6667 10.6667V55.6667C30.6667 58.4234 28.4233 60.6667 25.6667 60.6667ZM57.5833 39.6401L54.97 41.3401L56.49 44.0601C57.05 45.0601 57.3333 46.1601 57.3333 47.3334C57.3333 51.0101 54.3433 54.0001 50.5 54.0001H47.7733L47.2333 56.6734C47.0003 57.801 46.3857 58.8138 45.4932 59.5411C44.6007 60.2685 43.4847 60.666 42.3333 60.6667C39.5767 60.6667 37.3333 58.4234 37.3333 55.6667V10.6667C37.3333 8.82675 38.8267 7.33341 40.6667 7.33341C42.5067 7.33341 44 8.82675 44 10.8334V14.8567L47.9533 14.1067C48.9567 13.8942 50.0012 13.995 50.9455 14.3955C51.8897 14.796 52.6882 15.4768 53.2329 16.3458C53.7776 17.2149 54.0423 18.2303 53.9911 19.2547C53.9399 20.279 53.5753 21.263 52.9467 22.0734L49.4167 26.5634L55.06 27.4301C56.6216 27.6829 58.0427 28.4823 59.0696 29.6857C60.0965 30.8891 60.6625 32.4181 60.6667 34.0001C60.6667 36.2767 59.5133 38.3834 57.5833 39.6401Z" fill="#2D3A1D"/>
</svg>
