<svg xmlns="http://www.w3.org/2000/svg" viewBox="0 0 80 80"><mask id="path-1-outside-1_714_525" width="56" height="57" x="12.334" y="11.333" fill="#000" maskUnits="userSpaceOnUse"><rect width="56" height="57" x="12.334" y="11.334" fill="#fff"/><path fill-rule="evenodd" d="M 39.267 18.544 C 39.598 18.282 53.467 7.494 62.633 18.122 C 67.667 23.955 67.24 30.01 65.373 35.939 L 58.803 54.76 C 56.882 61.305 55.512 63.327 52.145 66.169 C 50.148 67.857 47.895 64.942 45.523 61.874 C 43.468 59.215 41.325 56.444 39.183 56.45 C 37.005 56.457 34.827 59.234 32.743 61.89 C 30.342 64.954 28.063 67.859 26.055 66.169 C 22 62.755 20.222 58.04 18.362 50.472 C 18.003 49.015 17.46 47.267 16.858 45.339 C 14.342 37.257 10.838 26.014 15.975 19.777 C 22.32 12.074 30.2 10.834 39.182 18.482 L 39.267 18.544 Z M 34.833 19.334 C 31.727 17.2 29.083 16.52 26.883 16.694 C 24.182 16.905 21.373 18.465 18.55 21.895 C 16.423 24.475 16.208 28.832 17.353 34.525 C 17.898 37.237 18.695 39.982 19.497 42.59 C 19.668 43.154 19.845 43.717 20.018 44.275 C 20.627 46.225 21.213 48.11 21.598 49.675 C 23.3 56.605 24.782 60.329 27.467 62.952 C 28.022 62.435 28.722 61.609 29.65 60.434 L 30.1 59.86 C 31.05 58.649 32.175 57.21 33.323 56.06 C 34.543 54.842 36.558 53.124 39.173 53.117 C 41.8 53.109 43.81 54.854 45.005 56.065 C 46.137 57.214 47.247 58.65 48.183 59.864 L 48.628 60.439 C 49.537 61.605 50.225 62.432 50.77 62.947 C 51.848 61.97 52.548 61.155 53.153 60.142 C 53.937 58.834 54.665 57.02 55.603 53.822 L 55.655 53.662 L 62.208 34.89 C 63.065 32.157 63.5 29.662 63.275 27.317 C 63.052 25.034 62.187 22.705 60.11 20.299 C 56.67 16.309 52.443 16.249 48.453 17.484 C 46.445 18.107 44.643 19.034 43.323 19.827 C 42.827 20.124 42.41 20.395 42.087 20.617 L 48.487 25.324 C 48.843 25.585 49.081 25.978 49.148 26.415 C 49.215 26.852 49.105 27.297 48.843 27.654 C 48.582 28.01 48.189 28.248 47.752 28.315 C 47.315 28.381 46.87 28.272 46.513 28.01 L 37.472 21.36 C 37.345 21.28 37.225 21.192 37.11 21.095 L 35.18 19.677 C 35.048 19.58 34.931 19.465 34.833 19.334 Z" clip-rule="evenodd"/></mask><path fill="#2D3A1D" fill-rule="evenodd" d="M 39.266 18.543 C 39.598 18.281 53.466 7.493 62.633 18.121 C 67.666 23.955 67.24 30.01 65.373 35.938 L 58.803 54.76 C 56.881 61.305 55.511 63.326 52.145 66.168 C 50.148 67.856 47.895 64.941 45.523 61.873 C 43.468 59.215 41.325 56.443 39.183 56.45 C 37.005 56.456 34.826 59.233 32.743 61.89 C 30.341 64.953 28.063 67.858 26.055 66.168 C 22 62.755 20.221 58.04 18.361 50.471 C 18.003 49.015 17.46 47.266 16.858 45.338 C 14.341 37.256 10.838 26.013 15.975 19.776 C 22.32 12.073 30.2 10.833 39.181 18.481 L 39.266 18.543 Z M 34.833 19.333 C 31.726 17.2 29.083 16.52 26.883 16.693 C 24.181 16.905 21.373 18.465 18.55 21.895 C 16.423 24.475 16.208 28.831 17.353 34.525 C 17.898 37.236 18.695 39.981 19.496 42.59 C 19.668 43.153 19.845 43.716 20.018 44.275 C 20.626 46.225 21.213 48.11 21.598 49.675 C 23.3 56.605 24.781 60.328 27.466 62.951 C 28.021 62.435 28.721 61.608 29.65 60.433 L 30.1 59.86 C 31.05 58.648 32.175 57.21 33.323 56.06 C 34.543 54.841 36.558 53.123 39.173 53.116 C 41.8 53.108 43.81 54.853 45.005 56.065 C 46.136 57.213 47.246 58.65 48.183 59.863 L 48.628 60.438 C 49.536 61.605 50.225 62.431 50.77 62.946 C 51.848 61.97 52.548 61.155 53.153 60.141 C 53.936 58.833 54.665 57.02 55.603 53.821 L 55.655 53.661 L 62.208 34.89 C 63.065 32.156 63.5 29.661 63.275 27.316 C 63.051 25.033 62.186 22.705 60.11 20.298 C 56.67 16.308 52.443 16.248 48.453 17.483 C 46.445 18.106 44.643 19.033 43.323 19.826 C 42.826 20.123 42.41 20.395 42.086 20.616 L 48.486 25.323 C 48.843 25.585 49.08 25.977 49.147 26.414 C 49.214 26.851 49.105 27.297 48.843 27.653 C 48.581 28.009 48.189 28.247 47.752 28.314 C 47.315 28.381 46.869 28.271 46.513 28.01 L 37.471 21.36 C 37.345 21.28 37.224 21.191 37.11 21.095 L 35.18 19.676 C 35.048 19.58 34.931 19.464 34.833 19.333 Z" clip-rule="evenodd" style="paint-order:fill;stroke:#2d3a1d"/><path d="M 27.161 63.825 L 27.166 63.821 L 26.611 62.989 L 26.606 62.992 L 27.161 63.825 Z M 39.267 18.543 L 38.68 19.353 L 39.292 19.797 L 39.886 19.329 L 39.267 18.543 Z M 62.633 18.122 L 61.876 18.775 L 61.876 18.775 L 62.633 18.122 Z M 65.373 35.938 L 66.318 36.268 L 66.323 36.253 L 66.327 36.239 L 65.373 35.938 Z M 58.803 54.76 L 57.859 54.431 L 57.851 54.454 L 57.844 54.478 L 58.803 54.76 Z M 52.145 66.168 L 51.5 65.404 L 51.499 65.405 L 52.145 66.168 Z M 45.523 61.873 L 46.315 61.262 L 45.523 61.873 Z M 39.183 56.45 L 39.187 57.45 L 39.187 57.45 L 39.183 56.45 Z M 32.743 61.89 L 31.957 61.273 L 32.743 61.89 Z M 26.055 66.168 L 25.411 66.933 L 25.411 66.934 L 26.055 66.168 Z M 18.362 50.472 L 19.333 50.233 L 19.333 50.233 L 18.362 50.472 Z M 16.858 45.338 L 15.904 45.636 L 15.904 45.636 L 16.858 45.338 Z M 15.975 19.777 L 15.203 19.141 L 15.203 19.141 L 15.975 19.777 Z M 39.182 18.482 L 38.533 19.243 L 38.563 19.268 L 38.595 19.291 L 39.182 18.482 Z M 34.833 19.333 L 35.634 18.734 L 35.535 18.602 L 35.4 18.509 L 34.833 19.333 Z M 26.883 16.693 L 26.962 17.69 L 26.962 17.69 L 26.883 16.693 Z M 18.55 21.895 L 19.322 22.531 L 19.322 22.531 L 18.55 21.895 Z M 17.353 34.525 L 18.334 34.328 L 18.334 34.328 L 17.353 34.525 Z M 19.497 42.59 L 20.453 42.299 L 20.453 42.296 L 19.497 42.59 Z M 20.018 44.275 L 19.063 44.572 L 19.064 44.573 L 20.018 44.275 Z M 21.598 49.675 L 22.57 49.437 L 22.57 49.436 L 21.598 49.675 Z M 27.467 62.952 L 26.768 63.667 L 27.45 64.334 L 28.148 63.684 L 27.467 62.952 Z M 29.65 60.433 L 30.435 61.053 L 30.437 61.051 L 29.65 60.433 Z M 30.1 59.86 L 30.887 60.478 L 30.887 60.477 L 30.1 59.86 Z M 33.323 56.06 L 32.617 55.353 L 32.616 55.353 L 33.323 56.06 Z M 39.173 53.117 L 39.176 54.117 L 39.177 54.117 L 39.173 53.117 Z M 45.005 56.065 L 45.717 55.363 L 45.717 55.363 L 45.005 56.065 Z M 48.183 59.863 L 47.392 60.474 L 47.393 60.475 L 48.183 59.863 Z M 48.628 60.438 L 47.838 61.05 L 47.839 61.053 L 48.628 60.438 Z M 50.77 62.947 L 50.083 63.674 L 50.756 64.309 L 51.441 63.688 L 50.77 62.947 Z M 53.153 60.142 L 52.296 59.628 L 52.295 59.629 L 53.153 60.142 Z M 55.603 53.822 L 54.652 53.514 L 54.648 53.527 L 54.644 53.54 L 55.603 53.822 Z M 55.655 53.662 L 54.711 53.332 L 54.707 53.343 L 54.704 53.354 L 55.655 53.662 Z M 62.208 34.89 L 63.153 35.22 L 63.158 35.205 L 63.163 35.189 L 62.208 34.89 Z M 63.275 27.317 L 64.271 27.221 L 64.27 27.219 L 63.275 27.317 Z M 60.11 20.298 L 59.353 20.951 L 59.353 20.952 L 60.11 20.298 Z M 48.453 17.483 L 48.158 16.528 L 48.157 16.528 L 48.453 17.483 Z M 43.323 19.827 L 43.836 20.685 L 43.839 20.684 L 43.323 19.827 Z M 42.087 20.617 L 41.521 19.792 L 40.36 20.588 L 41.494 21.422 L 42.087 20.617 Z M 48.487 25.323 L 47.894 26.129 L 47.895 26.129 L 48.487 25.323 Z M 46.513 28.01 L 45.921 28.816 L 45.922 28.816 L 46.513 28.01 Z M 37.472 21.36 L 38.064 20.555 L 38.037 20.534 L 38.007 20.516 L 37.472 21.36 Z M 37.11 21.095 L 37.754 20.33 L 37.729 20.309 L 37.702 20.289 L 37.11 21.095 Z M 35.18 19.677 L 35.772 18.871 L 35.772 18.871 L 35.18 19.677 Z M 39.886 19.329 C 40.02 19.223 43.452 16.553 47.925 15.206 C 52.367 13.869 57.647 13.871 61.876 18.775 L 63.391 17.469 C 58.453 11.744 52.216 11.826 47.349 13.291 C 42.514 14.747 38.846 17.602 38.647 17.758 L 39.886 19.329 Z M 61.876 18.775 C 64.261 21.538 65.327 24.317 65.596 27.091 C 65.867 29.887 65.333 32.738 64.42 35.638 L 66.327 36.239 C 67.281 33.211 67.894 30.07 67.586 26.898 C 67.277 23.704 66.04 20.538 63.391 17.468 L 61.876 18.775 Z M 64.429 35.609 L 57.859 54.431 L 59.748 55.09 L 66.318 36.268 L 64.429 35.609 Z M 57.844 54.478 C 56.89 57.729 56.095 59.772 55.158 61.34 C 54.233 62.886 53.14 64.02 51.5 65.404 L 52.79 66.933 C 54.517 65.475 55.792 64.177 56.875 62.366 C 57.944 60.576 58.796 58.337 59.763 55.042 L 57.844 54.478 Z M 51.499 65.405 C 51.206 65.653 50.98 65.688 50.758 65.653 C 50.479 65.609 50.1 65.43 49.605 65.029 C 48.606 64.217 47.527 62.831 46.315 61.262 L 44.732 62.485 C 45.891 63.984 47.125 65.59 48.344 66.581 C 48.96 67.081 49.666 67.505 50.445 67.629 C 51.282 67.761 52.086 67.528 52.791 66.932 L 51.499 65.405 Z M 46.315 61.262 C 45.299 59.948 44.204 58.528 43.081 57.443 C 41.989 56.388 40.668 55.445 39.18 55.45 L 39.187 57.45 C 39.841 57.448 40.663 57.888 41.691 58.882 C 42.689 59.846 43.693 61.14 44.732 62.485 L 46.315 61.262 Z M 39.18 55.45 C 37.683 55.455 36.349 56.393 35.238 57.453 C 34.098 58.539 32.986 59.96 31.957 61.273 L 33.53 62.507 C 34.584 61.163 35.603 59.867 36.618 58.9 C 37.662 57.905 38.505 57.452 39.187 57.45 L 39.18 55.45 Z M 31.957 61.273 C 30.729 62.839 29.637 64.222 28.627 65.031 C 28.127 65.431 27.742 65.611 27.457 65.655 C 27.228 65.691 26.995 65.653 26.699 65.403 L 25.411 66.934 C 26.119 67.529 26.925 67.762 27.763 67.632 C 28.545 67.511 29.255 67.09 29.877 66.592 C 31.109 65.606 32.357 64.004 33.53 62.507 L 31.957 61.273 Z M 26.699 65.403 C 22.912 62.216 21.191 57.792 19.333 50.233 L 17.391 50.71 C 19.253 58.288 21.088 63.295 25.411 66.933 L 26.699 65.403 Z M 19.333 50.233 C 18.966 48.74 18.412 46.96 17.813 45.041 L 15.904 45.636 C 16.508 47.573 17.041 49.29 17.391 50.711 L 19.333 50.233 Z M 17.813 45.041 C 16.55 40.983 15.075 36.241 14.54 31.747 C 14.002 27.231 14.443 23.209 16.747 20.413 L 15.203 19.141 C 12.37 22.581 11.995 27.299 12.554 31.984 C 13.115 36.692 14.651 41.612 15.904 45.636 L 17.813 45.041 Z M 16.747 20.413 C 19.813 16.69 23.142 14.657 26.671 14.369 C 30.202 14.081 34.164 15.522 38.533 19.243 L 39.83 17.72 C 35.218 13.793 30.749 12.03 26.508 12.376 C 22.265 12.722 18.482 15.16 15.203 19.141 L 16.747 20.413 Z M 38.595 19.291 L 38.68 19.353 L 39.854 17.734 L 39.769 17.672 L 38.595 19.291 Z M 35.4 18.509 C 32.156 16.282 29.289 15.501 26.805 15.697 L 26.962 17.69 C 28.878 17.539 31.297 18.118 34.267 20.158 L 35.4 18.509 Z M 26.805 15.696 C 23.746 15.936 20.709 17.698 17.778 21.26 L 19.322 22.531 C 22.038 19.232 24.618 17.874 26.962 17.69 L 26.805 15.696 Z M 17.779 21.259 C 16.545 22.755 15.916 24.707 15.728 26.96 C 15.541 29.211 15.79 31.824 16.373 34.722 L 18.334 34.328 C 17.772 31.532 17.556 29.121 17.722 27.125 C 17.887 25.131 18.428 23.615 19.322 22.531 L 17.779 21.259 Z M 16.373 34.722 C 16.928 37.485 17.737 40.27 18.541 42.884 L 20.453 42.296 C 19.653 39.694 18.869 36.988 18.334 34.328 L 16.373 34.722 Z M 18.54 42.882 C 18.713 43.448 18.891 44.017 19.063 44.572 L 20.974 43.979 C 20.799 43.417 20.624 42.859 20.453 42.299 L 18.54 42.882 Z M 19.064 44.573 C 19.675 46.532 20.251 48.385 20.627 49.914 L 22.57 49.436 C 22.176 47.835 21.579 45.919 20.973 43.977 L 19.064 44.573 Z M 20.627 49.914 C 22.33 56.847 23.861 60.827 26.768 63.667 L 28.166 62.236 C 25.703 59.83 24.27 56.363 22.57 49.437 L 20.627 49.914 Z M 28.148 63.684 C 28.766 63.109 29.509 62.225 30.435 61.053 L 28.866 59.813 C 27.935 60.991 27.278 61.762 26.785 62.22 L 28.148 63.684 Z M 30.437 61.051 L 30.887 60.478 L 29.314 59.243 L 28.864 59.816 L 30.437 61.051 Z M 30.887 60.477 C 31.846 59.254 32.933 57.866 34.031 56.767 L 32.616 55.353 C 31.417 56.554 30.254 58.043 29.313 59.243 L 30.887 60.477 Z M 34.03 56.768 C 35.232 55.568 36.993 54.122 39.176 54.117 L 39.171 52.117 C 36.123 52.125 33.855 54.116 32.617 55.353 L 34.03 56.768 Z M 39.177 54.117 C 41.362 54.11 43.115 55.573 44.293 56.767 L 45.717 55.363 C 44.505 54.134 42.238 52.107 39.17 52.117 L 39.177 54.117 Z M 44.293 56.767 C 45.375 57.865 46.448 59.251 47.392 60.474 L 48.975 59.252 C 48.046 58.049 46.899 56.562 45.717 55.363 L 44.293 56.767 Z M 47.393 60.475 L 47.838 61.05 L 49.419 59.826 L 48.974 59.251 L 47.393 60.475 Z M 47.839 61.053 C 48.745 62.216 49.476 63.1 50.083 63.674 L 51.457 62.22 C 50.975 61.764 50.329 60.995 49.418 59.824 L 47.839 61.053 Z M 51.441 63.688 C 52.573 62.663 53.344 61.773 54.012 60.654 L 52.295 59.629 C 51.753 60.537 51.124 61.277 50.099 62.206 L 51.441 63.688 Z M 54.011 60.655 C 54.862 59.236 55.618 57.324 56.563 54.103 L 54.644 53.54 C 53.712 56.717 53.012 58.431 52.296 59.628 L 54.011 60.655 Z M 56.555 54.129 L 56.607 53.969 L 54.704 53.354 L 54.652 53.514 L 56.555 54.129 Z M 56.599 53.991 L 63.153 35.22 L 61.264 34.56 L 54.711 53.332 L 56.599 53.991 Z M 63.163 35.189 C 64.039 32.392 64.513 29.752 64.271 27.221 L 62.28 27.412 C 62.487 29.571 62.091 31.922 61.254 34.591 L 63.163 35.189 Z M 64.27 27.219 C 64.027 24.727 63.077 22.206 60.867 19.645 L 59.353 20.952 C 61.297 23.205 62.077 25.34 62.28 27.414 L 64.27 27.219 Z M 60.868 19.645 C 59.005 17.485 56.887 16.349 54.666 15.948 C 52.469 15.55 50.244 15.882 48.158 16.528 L 48.749 18.439 C 50.653 17.849 52.536 17.594 54.31 17.916 C 56.06 18.232 57.776 19.122 59.353 20.951 L 60.868 19.645 Z M 48.157 16.528 C 46.049 17.183 44.172 18.15 42.808 18.97 L 43.839 20.684 C 45.114 19.917 46.841 19.031 48.75 18.438 L 48.157 16.528 Z M 42.811 18.968 C 42.295 19.276 41.861 19.559 41.521 19.792 L 42.652 21.442 C 42.96 21.231 43.359 20.97 43.836 20.685 L 42.811 18.968 Z M 41.494 21.422 L 47.894 26.129 L 49.079 24.518 L 42.679 19.811 L 41.494 21.422 Z M 47.895 26.129 C 48.037 26.234 48.132 26.391 48.159 26.566 L 50.136 26.263 C 50.029 25.564 49.649 24.936 49.079 24.517 L 47.895 26.129 Z M 48.159 26.566 C 48.186 26.741 48.142 26.919 48.038 27.061 L 49.649 28.245 C 50.068 27.675 50.243 26.962 50.136 26.263 L 48.159 26.566 Z M 48.038 27.061 C 47.933 27.204 47.776 27.299 47.601 27.326 L 47.904 29.303 C 48.603 29.196 49.231 28.815 49.649 28.245 L 48.038 27.061 Z M 47.601 27.326 C 47.426 27.353 47.248 27.309 47.105 27.204 L 45.922 28.816 C 46.492 29.235 47.205 29.41 47.904 29.303 L 47.601 27.326 Z M 47.106 27.205 L 38.064 20.555 L 36.879 22.166 L 45.921 28.816 L 47.106 27.205 Z M 38.007 20.516 C 37.919 20.459 37.834 20.397 37.754 20.33 L 36.466 21.86 C 36.615 21.985 36.772 22.1 36.936 22.205 L 38.007 20.516 Z M 37.702 20.289 L 35.772 18.871 L 34.588 20.483 L 36.518 21.901 L 37.702 20.289 Z M 35.772 18.871 C 35.719 18.832 35.673 18.786 35.634 18.734 L 34.033 19.933 C 34.19 20.143 34.377 20.328 34.588 20.483 L 35.772 18.871 Z" mask="url(#path-1-outside-1_714_525)" style="fill:#2d3a1d;paint-order:stroke"/></svg>