<svg width="56" height="56" viewBox="0 0 56 56" fill="none" xmlns="http://www.w3.org/2000/svg">
<path d="M53.8479 24.0959L53.8454 24.1032L47.2795 42.913C46.3169 46.1899 45.4807 48.3774 44.4452 50.1095C43.4021 51.8544 42.1724 53.1114 40.4675 54.5505M53.8479 24.0959L40.145 54.1684M53.8479 24.0959L53.8503 24.0885M53.8479 24.0959L53.8503 24.0885M40.4675 54.5505L40.145 54.1684M40.4675 54.5505C40.4676 54.5504 40.4677 54.5503 40.4679 54.5502L40.145 54.1684M40.4675 54.5505C39.8656 55.0593 39.2061 55.243 38.5233 55.1349C37.8691 55.0313 37.2445 54.6679 36.6595 54.1927C35.5049 53.2547 34.3204 51.7222 33.1576 50.2178L33.1277 50.1791C32.0942 48.8421 31.0676 47.5161 30.0385 46.5219C28.9939 45.5129 28.0474 44.9473 27.1849 44.95C26.2997 44.9527 25.3332 45.5271 24.2727 46.5382C23.2268 47.5354 22.1845 48.8625 21.1368 50.1985L20.7433 49.89M40.145 54.1684C38.1483 55.8567 35.895 52.9417 33.5233 49.8734C31.4683 47.215 29.325 44.4434 27.1833 44.45C25.005 44.4567 22.8267 47.2334 20.7433 49.89M20.7433 49.89L21.1368 50.1986M20.7433 49.89L21.1368 50.1986M21.1368 50.1986L21.1079 50.2354C19.9299 51.738 18.731 53.2673 17.5643 54.2019C16.9733 54.6754 16.3438 55.036 15.686 55.1378C15.0003 55.2439 14.338 55.06 13.7331 54.5509L13.733 54.5509C9.54409 51.0248 7.73731 46.1642 5.87613 38.591M21.1368 50.1986L5.87613 38.591M5.87613 38.591C5.87613 38.5911 5.87614 38.5911 5.87615 38.5911L6.36168 38.4717L5.87613 38.591ZM53.8503 24.0885C54.7936 21.0925 55.3868 18.0239 55.0885 14.9462C54.7892 11.8573 53.5947 8.78841 51.0119 5.79506M53.8503 24.0885L51.0119 5.79506M14.9226 5.19182L14.9224 5.19184C12.3996 5.38949 9.70543 6.84835 6.93605 10.2128L6.93583 10.2131C5.95742 11.4 5.39418 13.0252 5.22308 15.0839C5.05193 17.1435 5.27618 19.6054 5.84353 22.4265L5.84354 22.4265C6.38338 25.1125 7.17386 27.8378 7.97461 30.4431L7.97496 30.4443C8.10115 30.8584 8.22987 31.2719 8.35849 31.6851C8.40431 31.8323 8.45011 31.9794 8.49579 32.1266C8.49581 32.1266 8.49584 32.1267 8.49586 32.1268L8.01834 32.275C8.62668 34.225 9.21334 36.11 9.59834 37.675C11.3 44.605 12.7817 48.3284 15.4667 50.9517L14.9226 5.19182ZM14.9226 5.19182C16.9663 5.03081 19.477 5.65049 22.4873 7.70247C22.603 7.84439 22.7362 7.97113 22.8839 8.07961C22.884 8.07966 22.8841 8.07971 22.8841 8.07976L24.8011 9.48855C24.9243 9.59126 25.0538 9.68615 25.1888 9.77268L34.2171 16.4128L34.2174 16.413C34.6805 16.7532 35.2598 16.8955 35.8279 16.8085C36.3959 16.7216 36.9061 16.4125 37.2463 15.9494C37.5865 15.4862 37.7288 14.9069 37.6418 14.3388C37.5549 13.7708 37.2458 13.2606 36.7827 12.9204L30.9603 8.63849M14.9226 5.19182L30.9603 8.63849M27.1721 40.6167C24.3408 40.6239 22.1992 42.4788 20.97 43.7062L20.9695 43.7067C19.8122 44.8658 18.6836 46.3053 17.7457 47.5016L17.7067 47.5513L17.7065 47.5515L17.2577 48.1234C17.2576 48.1235 17.2575 48.1236 17.2574 48.1238C16.52 49.0571 15.9405 49.7525 15.4711 50.2434L27.1733 41.1167M27.1721 40.6167L27.1733 41.1167M27.1721 40.6167C27.172 40.6167 27.1719 40.6167 27.1718 40.6167L27.1733 41.1167M27.1721 40.6167C30.0192 40.6078 32.1576 42.4937 33.361 43.7139L33.3611 43.7141C34.5178 44.8878 35.6463 46.3495 36.5791 47.5578M27.1733 41.1167C29.8 41.1084 31.81 42.8534 33.005 44.065C34.1367 45.2134 35.2467 46.65 36.1833 47.8634M36.5791 47.5578L36.5788 47.5574L36.1833 47.8634M36.5791 47.5578L36.1833 47.8634M36.5791 47.5578L37.0229 48.1312L36.6283 48.4384M36.1833 47.8634L36.6283 48.4384M36.6283 48.4384L37.0238 48.1324L37.023 48.1314M36.6283 48.4384C37.5367 49.605 38.225 50.4317 38.77 50.9467C39.8483 49.97 40.5483 49.155 41.1533 48.1417C41.9367 46.8334 42.665 45.02 43.6033 41.8217L37.023 48.1314M37.023 48.1314C37.7498 49.0649 38.3217 49.7619 38.7842 50.2521C39.6386 49.4412 40.2169 48.7348 40.724 47.8854L40.7244 47.8849C41.4743 46.6323 42.1884 44.8683 43.1236 41.6809L43.1274 41.668L43.1275 41.6681L43.1792 41.508L43.1828 41.4969L43.183 41.4969L49.7336 22.7328C50.5786 20.0346 50.9932 17.6143 50.7773 15.3645C50.564 13.1858 49.7415 10.9545 47.7315 8.62502L47.7313 8.62486C46.0828 6.71272 44.2668 5.7616 42.3989 5.4235C40.5192 5.08327 38.5507 5.3576 36.6012 5.96101C34.6429 6.56886 32.8788 7.47524 31.5809 8.25526L31.5797 8.25596C31.3561 8.38953 31.1492 8.51784 30.9603 8.63849M37.023 48.1314L30.9603 8.63849M51.0119 5.79506C46.2515 0.275669 40.2537 0.33669 35.4927 1.77001M51.0119 5.79506L35.4927 1.77001M35.4927 1.77001C31.4806 2.97793 28.2805 5.17283 27.2779 5.90862L35.4927 1.77001Z" fill="#2D3A1D" stroke="#2D3A1D"/>
</svg>
