<svg xmlns="http://www.w3.org/2000/svg" width="80" height="80" fill="none" viewBox="0 0 80 80"><path fill="#2D3A1D" d="M13.3333 66.6666C11.5 66.6666 9.93 66.0133 8.62333 64.7066C7.31666 63.3999 6.66444 61.831 6.66666 59.9999V56.6666C6.66666 54.8333 7.32 53.2633 8.62666 51.9566C9.93333 50.6499 11.5022 49.9977 13.3333 49.9999C15.1667 49.9999 16.7367 50.6533 18.0433 51.9599C19.35 53.2666 20.0022 54.8355 20 56.6666V59.9999C20 61.8333 19.3467 63.4033 18.04 64.7099C16.7333 66.0166 15.1644 66.6688 13.3333 66.6666ZM70.1667 66.6666H65C64.4444 66.6666 64 66.4577 63.6667 66.0399C63.3333 65.6221 63.2222 65.1366 63.3333 64.5833L64.25 60.9999C64.3611 60.5555 64.5833 60.2077 64.9167 59.9566C65.25 59.7055 65.6389 59.6366 66.0833 59.7499L70.5833 60.4166C71.3611 60.5277 72.0144 60.8755 72.5433 61.4599C73.0722 62.0444 73.3356 62.7244 73.3333 63.4999C73.3333 64.3888 73.0278 65.1388 72.4167 65.7499C71.8056 66.361 71.0555 66.6666 70.1667 66.6666ZM57.8333 65.4999L48.3333 62.3333C47.8889 62.1666 47.5556 61.861 47.3333 61.4166C47.1111 60.9721 47.1111 60.5277 47.3333 60.0832L49.8333 54.3332C50.0556 53.8888 50.4033 53.5688 50.8767 53.3732C51.35 53.1777 51.8078 53.2199 52.25 53.4999L60.25 58.1666C60.5833 58.3333 60.82 58.5832 60.96 58.9166C61.1 59.2499 61.1133 59.611 61 59.9999L60 64.3332C59.8889 64.7777 59.6111 65.1255 59.1667 65.3766C58.7222 65.6277 58.2778 65.6688 57.8333 65.4999ZM42.3333 59.6666L35.8333 57.9999C35.0556 57.7777 34.4444 57.3744 34 56.7899C33.5556 56.2055 33.3333 55.5255 33.3333 54.7499V51.6666C33.3333 50.3888 33.5556 49.1944 34 48.0833C34.4444 46.9721 35.1944 46.0833 36.25 45.4166C36.5278 45.2499 36.8056 45.1521 37.0833 45.1233C37.3611 45.0944 37.6389 45.1644 37.9167 45.3333L46.4167 49.9999C46.8056 50.2221 47.07 50.541 47.21 50.9566C47.35 51.3721 47.3356 51.7755 47.1667 52.1666L44.25 58.7499C44.0833 59.1388 43.8189 59.4166 43.4567 59.5833C43.0944 59.7499 42.72 59.7777 42.3333 59.6666ZM24.8333 56.6666C24.3889 56.6666 24.0278 56.541 23.75 56.2899C23.4722 56.0388 23.3056 55.7199 23.25 55.3333C22.8611 52.8333 21.7367 50.7633 19.8767 49.1233C18.0167 47.4833 15.8356 46.6644 13.3333 46.6666H11.6667C11.2222 46.6666 10.8333 46.4999 10.5 46.1666C10.1667 45.8333 10 45.4444 10 44.9999C10 44.5555 10.1667 44.1666 10.5 43.8333C10.8333 43.4999 11.2222 43.3333 11.6667 43.3333H14.6667C15.7778 43.3333 16.8333 43.1944 17.8333 42.9166C18.8333 42.6388 19.8056 42.1944 20.75 41.5833C21.0278 41.4166 21.3333 41.3333 21.6667 41.3333C22 41.3333 22.3056 41.4166 22.5833 41.5833C23.6944 42.2499 24.8889 42.7088 26.1667 42.9599C27.4444 43.211 28.7222 43.3355 30 43.3333C30.6667 43.3333 31.1389 43.681 31.4167 44.3766C31.6944 45.0721 31.6111 45.7521 31.1667 46.4166C30.6667 47.1944 30.3478 48.0277 30.21 48.9166C30.0722 49.8055 30.0022 50.7221 30 51.6666V54.9999C30 55.4444 29.8333 55.8333 29.5 56.1666C29.1667 56.4999 28.7778 56.6666 28.3333 56.6666H24.8333ZM14.8333 39.9999C12.5 39.9999 10.5556 39.2355 9 37.7066C7.44444 36.1777 6.66666 34.2755 6.66666 31.9999C6.66666 30.9444 6.86111 29.9166 7.25 28.9166C7.63888 27.9166 8.22222 27.0277 9 26.2499L13.3333 21.9166V13.3333H20V21.9999C20 22.8888 19.8189 23.7366 19.4567 24.5433C19.0944 25.3499 18.6089 26.0577 18 26.6666L13.75 30.9999C13.6389 31.111 13.5411 31.2499 13.4567 31.4166C13.3722 31.5833 13.3311 31.7499 13.3333 31.9166C13.3333 32.3055 13.4722 32.6388 13.75 32.9166C14.0278 33.1944 14.3611 33.3333 14.75 33.3333C15.1944 33.3333 15.6667 33.0833 16.1667 32.5833C16.9444 31.9166 17.7922 31.3755 18.71 30.9599C19.6278 30.5444 20.6133 30.3355 21.6667 30.3333C22.7222 30.3333 23.7089 30.5421 24.6267 30.9599C25.5444 31.3777 26.3911 31.9188 27.1667 32.5833L27.8333 33.0833C28.0556 33.2499 28.3056 33.3333 28.5833 33.3333C28.9722 33.3333 29.3056 33.1944 29.5833 32.9166C29.8611 32.6388 30 32.3055 30 31.9166C30 31.7499 29.9578 31.5833 29.8733 31.4166C29.7889 31.2499 29.6933 31.111 29.5867 30.9999L25.3333 26.6666C24.7222 26.0555 24.2356 25.3466 23.8733 24.5399C23.5111 23.7333 23.3311 22.8866 23.3333 21.9999V13.3333H30V21.9166L34.3333 26.2499C35.1111 27.0277 35.6944 27.9033 36.0833 28.8766C36.4722 29.8499 36.6667 30.8633 36.6667 31.9166C36.6667 34.1944 35.8889 36.111 34.3333 37.6666C32.7778 39.2221 30.8333 39.9999 28.5 39.9999C27.4444 39.9999 26.4444 39.7777 25.5 39.3333C24.5556 38.8888 23.6944 38.3333 22.9167 37.6666C22.6944 37.4999 22.5 37.3466 22.3333 37.2066C22.1667 37.0666 21.9444 36.9977 21.6667 36.9999C21.2778 36.9999 20.8611 37.2221 20.4167 37.6666C19.6389 38.3333 18.7644 38.8744 17.7933 39.2899C16.8222 39.7055 15.8356 39.9421 14.8333 39.9999Z"/></svg>