<svg width="80" height="80" viewBox="0 0 80 80" fill="none" xmlns="http://www.w3.org/2000/svg">
<path d="M31.7267 73.3334C30.0933 68.0084 27.63 64.0367 24.335 61.4217C19.3933 57.5001 11.5417 59.9384 8.64167 55.8917C5.74167 51.8451 10.6733 44.4051 12.4033 40.0151C14.135 35.6251 5.77 34.0734 6.74667 32.8267C7.39667 31.9951 11.625 29.5984 19.4283 25.6334C21.645 12.9901 29.8333 6.66675 43.9967 6.66675C65.24 6.66675 73.3333 24.6767 73.3333 36.1334C73.3333 47.5867 63.5333 59.9267 49.5733 62.5884C48.325 64.4051 50.125 67.9884 54.9733 73.3334" stroke="#2D3A1D" stroke-width="4.67" stroke-linecap="round" stroke-linejoin="round"/>
<path d="M32.5 24.1669C31.41 28.3902 31.7333 31.3569 33.4717 33.0652C35.2083 34.7719 38.1683 35.8902 42.3517 36.4152C41.4017 41.8635 42.56 44.4185 45.8233 44.0819C49.0867 43.7469 51.0483 42.3902 51.7067 40.0152C56.8067 41.4485 59.5717 40.2485 60 36.4152C60.6417 30.6652 57.5417 26.0802 56.27 26.0802C55 26.0802 51.7067 25.9252 51.7067 24.1669C51.7067 22.4085 47.86 21.4169 44.3883 21.4169C40.9167 21.4169 43.005 19.0752 38.2383 20.0002C35.06 20.6169 33.1467 22.0052 32.5 24.1669Z" stroke="#2D3A1D" stroke-width="5" stroke-linejoin="round"/>
<path d="M50.8333 42.5C49.1383 43.5517 46.8133 45.3 45.8333 46.6667C43.385 50.0833 41.4 52.1633 40.9667 54.3467" stroke="#2D3A1D" stroke-width="4" stroke-linecap="round"/>
</svg>
