<svg width="64" height="64" viewBox="0 0 64 64" fill="none" xmlns="http://www.w3.org/2000/svg">
<path d="M26.6667 53.3334H37.3334V50.6668H26.6667V53.3334ZM18.6667 61.3334C17.2 61.3334 15.944 60.8108 14.8987 59.7654C13.8534 58.7201 13.3316 57.465 13.3334 56.0001V8.00009C13.3334 6.53342 13.856 5.27742 14.9014 4.23209C15.9467 3.18675 17.2018 2.66497 18.6667 2.66675H45.3334C46.8 2.66675 48.056 3.18942 49.1014 4.23475C50.1467 5.28009 50.6685 6.5352 50.6667 8.00009V56.0001C50.6667 57.4668 50.144 58.7228 49.0987 59.7681C48.0534 60.8134 46.7983 61.3352 45.3334 61.3334H18.6667ZM18.6667 48.0001V56.0001H45.3334V48.0001H18.6667ZM18.6667 42.6668H45.3334V16.0001H18.6667V42.6668ZM18.6667 10.6668H45.3334V8.00009H18.6667V10.6668Z" fill="#2D3A1D"/>
</svg>
