<svg width="80" height="80" viewBox="0 0 80 80" fill="none" xmlns="http://www.w3.org/2000/svg">
<path d="M36.375 5.6251C36.375 5.6251 36.225 8.33135 36.8563 8.6876C37.4875 9.0501 38.5688 8.80635 40.4625 8.80635C42.3563 8.80635 43.1063 9.0751 43.675 8.65635C44.2438 8.2376 43.8875 5.38135 43.8875 5.38135L36.375 5.6251Z" fill="#2D3A1D"/>
<path d="M10.3937 21.4437C11.0312 23.0124 15.0125 21.4437 15.0125 21.4437C15.0125 21.4437 18.0937 21.0749 22.3437 21.5999C26.5937 22.1249 35.25 25.4749 35.25 25.4749C35.25 25.4749 33.925 26.5874 31.6375 25.7937C29.3562 24.9999 28.45 23.2999 27.7625 23.7249C27.075 24.1499 27.3937 26.8062 30.6312 28.0812C33.8687 29.3562 36.4187 28.2374 36.4187 28.2374L36.575 32.5374C36.575 32.5374 35.675 31.8999 34.5062 31.8499C33.3375 31.7999 24.7875 32.4312 23.8313 29.6187C22.875 26.8062 25.6375 25.2124 26.275 24.7312C26.9125 24.2562 27.2812 23.3499 26.4875 22.9812C25.6938 22.6124 20.8562 24.1999 20.5375 28.5062C20.2188 32.8124 25.9 34.8249 29.0375 35.1437C32.175 35.4624 35.1437 35.4062 35.625 35.2499C36.1 35.0937 36.6875 34.6124 36.6875 34.6124C36.6875 34.6124 37.0562 46.2437 37.325 47.7312C37.5875 49.2187 38.5437 51.0749 40.35 50.9187C42.1562 50.7624 42.5812 48.5812 42.7375 47.1499C42.8937 45.7187 43.6937 35.0937 43.6937 35.0937C43.6937 35.0937 44.3312 35.8374 45.125 35.8374C45.9187 35.8374 52.5062 36.4749 56.0125 34.8812C59.5188 33.2874 60.8437 30.6874 60.2625 27.3374C59.6812 23.9874 55.8 22.7687 55.0562 23.3562C54.3125 23.9374 55.4812 25.0562 56.0125 25.5874C56.5438 26.1187 58.5062 29.9437 55.4312 31.3749C52.35 32.8062 45.925 32.1187 45.1812 32.2749C44.4375 32.4312 43.9062 33.2312 43.9062 33.2312L44.0625 28.4499C44.0625 28.4499 48.6812 29.5624 51.1812 27.2312C53.6812 24.8999 53.2 23.6187 52.4 23.4624C51.6062 23.3062 51.075 25.4812 49.2125 26.0124C47.3562 26.5437 44.9125 26.3312 44.9125 26.3312C44.9125 26.3312 48.3625 23.8874 54.5813 22.4562C60.7937 21.0249 66.1062 21.6624 66.1062 21.6624C66.1062 21.6624 68.6312 23.8062 70.425 22.3874C72.2187 20.9687 69.6688 18.3687 67.9125 18.2062C66.1563 18.0437 61.4875 17.4749 54.3125 19.2687C46.875 21.1249 42.4125 24.0499 42.4125 24.0499C42.4125 24.0499 39.3312 24.3124 37.475 23.4687C35.6187 22.6187 30.7875 19.9312 23.025 18.5312C17.45 17.5249 13.0937 17.6312 11.975 18.0562C11.3187 18.2999 9.4875 19.2124 10.3937 21.4437Z" fill="#2D3A1D"/>
<path d="M28.575 18.5562C28.5312 19.2874 29.3 19.8499 29.9062 19.8499C30.5125 19.8499 31.4687 18.8999 33.1437 18.6687C34.8187 18.4374 35.1625 18.7812 35.6188 18.5937C36.075 18.4062 36.4187 17.6062 35.7687 17.0687C35.1187 16.5374 32.9125 16.5749 31.7312 16.8374C30.55 17.0999 28.6125 17.9124 28.575 18.5562Z" fill="#2D3A1D"/>
<path d="M36.35 20.2689C36.3875 21.0689 36.3313 22.1189 37.4188 22.5189C38.1438 22.7876 38.525 22.5189 40.275 22.4439C42.025 22.3689 42.7125 22.7126 43.6688 22.0626C44.625 21.4126 44.4688 19.2814 43.8563 18.7876C43.3313 18.3626 41.075 18.5189 40.275 18.5189C39.475 18.5189 36.2313 17.7939 36.35 20.2689ZM36.7313 14.1376C36.3063 14.5126 36.35 16.8814 36.9188 17.3376C37.4875 17.7939 42.6688 17.4876 43.1688 17.4876C43.6688 17.4876 44.0813 17.0689 44.0438 15.6189C44.0063 14.1689 43.9688 13.6751 42.1 13.7501C40.2313 13.8314 37.375 13.5689 36.7313 14.1376ZM36.8063 9.86887C36.4813 10.2626 36.0813 12.3814 36.6563 12.8001C37.225 13.2189 39.0563 12.8751 40.2375 12.8751C41.4188 12.8751 43.1313 13.2564 43.7813 12.5689C44.4313 11.8814 44.125 9.82512 43.5125 9.51887C42.9 9.21262 41.4938 9.55637 40.1625 9.55637C38.825 9.56887 37.1875 9.41262 36.8063 9.86887Z" fill="#2D3A1D"/>
<path d="M45.4563 17.5311C45.4563 18.2186 45.7625 18.4812 46.75 18.4812C47.7375 18.4812 48.5812 18.5187 49.1125 18.8249C49.6437 19.1312 49.725 19.5874 50.2938 19.6249C50.8625 19.6624 52.2 19.6249 52.125 18.7874C52.05 17.9499 50.4875 17.1874 49.1937 16.9561C47.9 16.7249 45.4563 16.4624 45.4563 17.5311ZM20.4 31.6937C19.6125 31.0874 18.2625 32.4812 17.8125 32.9874C17.3625 33.4937 15 36.3624 17.475 39.6749C19.95 42.9874 24.875 42.9437 28.2125 42.6562C32.7125 42.2624 36.7563 40.3499 36.1375 38.3249C35.6688 36.7937 31.0562 40.0562 25.6812 39.5062C20.7375 38.9999 19.05 37.8749 18.9937 35.3999C18.9375 32.9562 21.6375 32.6499 20.4 31.6937ZM44.4062 38.4374C43.8313 39.2937 44.3437 40.3874 46.6 41.3062C49.9187 42.6562 58.6875 45.0187 62.675 40.9124C66.6687 36.8062 62.8437 31.0187 61.0437 31.5249C58.75 32.1687 63.8 35.7999 60.425 38.1562C57.6937 40.0687 53.3438 39.5624 49.8 38.9999C46.5 38.4812 45.1938 37.2624 44.4062 38.4374Z" fill="#2D3A1D"/>
<path d="M44.1813 42.6C43.5813 43.2938 44.5188 45.6938 48.2313 47.825C51.9438 49.9625 56.05 51.375 60.9375 50.3C66.1313 49.1563 66.275 42.2625 63.8625 41.9813C61.9063 41.7563 64.7313 45.7688 60.0375 46.65C55.5375 47.4938 51.0438 45.4688 49.3563 44.625C47.6625 43.7813 45.25 41.3625 44.1813 42.6ZM43.9875 46.3375C43.1875 46.9375 43.2063 47.8688 43.8813 50.0438C44.4125 51.7563 47.0188 59.9188 51.2938 64.6625C55.0438 68.8188 57.375 68.6563 57.3563 67.55C57.3188 65.5875 56.4625 66.3 53.0063 61.5625C50.5063 58.1313 48.4063 53.7563 48.4063 53.7563C48.4063 53.7563 50.4875 55.7063 52.575 57.1813C54.6438 58.6438 56.7125 59.2875 57.2813 59.1063C57.85 58.925 57.675 57.3938 57.2125 56.6125C56.8 55.9125 55.9313 55.7188 54.1813 54.65C51.9938 53.3125 49.7938 51.3 47.8688 49.4813C45.9438 47.6563 44.7 45.8063 43.9875 46.3375Z" fill="#2D3A1D"/>
<path d="M58.0813 59.1001C58.5063 59.4189 61.1875 59.3376 62.825 58.0314C65.4625 55.9251 65.6437 54.0439 65.6437 51.7939C65.6437 50.2939 65 49.1939 64.4688 49.4064C63.9375 49.6189 63.9125 52.9064 62.2938 54.7189C60.5438 56.6814 59.0125 55.9314 58.05 56.3939C57.1875 56.8001 57.5063 58.6751 58.0813 59.1001ZM57.925 66.5501C57.6625 66.8501 57.8 68.1314 58.1875 68.6626C58.5625 69.1751 62.2313 69.4626 63.7375 67.1939C65.3438 64.7689 65.275 59.1626 64.025 59.2814C62.8813 59.3876 63.4562 64.0939 61.5625 65.4126C59.6688 66.7314 58.6 65.7689 57.925 66.5501ZM16.1062 40.5251C15.0375 40.7064 14.9875 43.9939 15.4625 46.0876C16 48.4376 18.4187 50.9689 23.3062 50.7564C29.1875 50.5001 33.825 46.4751 34.7125 45.7626C35.6062 45.0501 36.7437 43.6251 36.2437 42.9439C35.7437 42.2689 34.5687 42.6564 33.0375 43.4814C31.5062 44.3001 25.9812 47.1876 22.9812 47.0126C19.9875 46.8314 18.5937 45.7626 17.9875 43.9439C17.3875 42.1314 17.1375 40.3501 16.1062 40.5251ZM36.2875 46.6939C35.4812 46.3689 34.7187 47.1939 33.65 48.3001C32.5812 49.4064 28.9062 52.9689 26.6625 54.5376C25.5375 55.3251 24.4187 55.5689 24.1687 56.3189C23.9187 57.0689 24.1187 58.4689 24.6312 58.6376C25.6312 58.9564 28.4437 56.7814 29.625 55.9251C30.8062 55.0689 32.2625 53.5001 32.2625 53.5001C32.2625 53.5001 30.9812 58.0251 27.7687 61.7689C24.75 65.2939 24.3125 64.7626 23.4875 65.8689C22.6688 66.9751 22.6687 67.8626 22.6687 67.8626C22.6687 67.8626 22.5625 69.4689 23.775 69.0376C24.9875 68.6126 27.6937 67.1814 30.1937 63.6876C32.6937 60.1939 34.2562 56.8439 35.2562 54.0251C36.25 51.2251 37.3562 47.1251 36.2875 46.6939ZM16.3187 49.2626C15.3187 48.8001 14.0875 50.7376 14.75 53.8626C15.425 57.0689 17.425 58.3564 19.525 58.9251C21.9625 59.5876 23.3375 59.4939 23.2687 57.9251C23.2 56.3564 21.7687 56.4626 20.8062 56.2501C19.8438 56.0376 17.7437 55.4376 17.1312 53.2564C16.3937 50.5814 17.0187 49.5876 16.3187 49.2626Z" fill="#2D3A1D"/>
<path d="M17.1312 59.0938C16.4812 59.0376 15.8812 60.0188 15.8812 62.2313C15.8812 64.8938 16.925 67.4626 18.7375 68.5876C20.2187 69.5126 21.2625 69.6626 21.9562 69.5126C22.8812 69.3126 22.925 66.9376 22.3187 66.6126C21.7125 66.2876 20.45 66.5938 19.2187 65.1626C18.25 64.0376 17.6562 62.7876 17.7687 61.1376C17.8562 59.9813 17.6125 59.1376 17.1312 59.0938Z" fill="#2D3A1D"/>
</svg>
